<svg xmlns="http://www.w3.org/2000/svg" width="32" height="32" fill="none">
  <rect width="28" height="28" x="2" y="2" fill="#000" fill-opacity=".48" rx="8"/>
  <g clip-path="url(#a)">
    <path fill="#fff" d="M16 8.8263c2.3364 0 2.6131.0088 3.5358.051.8532.0389 1.3165.1813 1.6248.3012.4086.1588.7.3482 1.0062.6544.3061.3062.4959.5976.6544 1.0061.1199.3083.2623.7716.3012 1.6248.0421.9228.0509 1.1994.0509 3.5359 0 2.3364-.0088 2.613-.0509 3.5358-.0389.8532-.1813 1.3165-.3012 1.6248-.1589.4086-.3482.6999-.6544 1.0061-.3062.3062-.5977.4959-1.0062.6544-.3083.1199-.7716.2623-1.6248.3013-.9226.042-1.1994.0508-3.5358.0508-2.3365 0-2.6131-.0087-3.5358-.0508-.8532-.039-1.3165-.1814-1.6248-.3013-.4086-.1589-.7-.3482-1.0062-.6544-.3061-.3062-.4959-.5976-.6544-1.0061-.12-.3083-.2623-.7716-.3012-1.6248-.042-.9227-.0509-1.1994-.0509-3.5358 0-2.3364.0088-2.6131.0509-3.5359.039-.8532.1813-1.3165.3012-1.6248.1589-.4086.3482-.6999.6544-1.0061.3062-.3062.5977-.496 1.0062-.6544.3083-.12.7716-.2623 1.6248-.3012.9226-.0418 1.1994-.051 3.5358-.051ZM16 7.25c-2.3764 0-2.6745.0102-3.6077.0526-.9315.0424-1.5673.1905-2.1239.4068-.5755.2237-1.0633.5229-1.5497 1.0093-.4864.4864-.7859.9742-1.0093 1.5497-.2164.5566-.3644 1.1928-.4068 2.1239C7.2602 13.3256 7.25 13.6237 7.25 16c0 2.3763.0102 2.6744.0526 3.6076.0424.9315.1905 1.5674.4068 2.1239.2237.5755.5229 1.0633 1.0093 1.5497.4864.4865.9746.7856 1.5497 1.0094.5566.2163 1.1928.3643 2.1239.4068.9332.0424 1.2313.0525 3.6077.0525 2.3763 0 2.6744-.0101 3.6076-.0525.9315-.0425 1.5674-.1905 2.1239-.4068.5755-.2238 1.0633-.523 1.5497-1.0094.4865-.4864.7856-.9746 1.0094-1.5497.2163-.5565.3643-1.1927.4068-2.1239.0424-.9332.0525-1.2313.0525-3.6076 0-2.3764-.0101-2.6745-.0525-3.6077-.0425-.9315-.1905-1.5673-.4068-2.1239-.2238-.5755-.523-1.0633-1.0094-1.5497-.4864-.4864-.9746-.7856-1.5497-1.0093-.5565-.2164-1.1927-.3644-2.1239-.4068C18.6745 7.2602 18.3763 7.25 16 7.25Zm0 4.2568c-2.4816 0-4.4932 2.0116-4.4932 4.4932 0 2.4815 2.0116 4.4932 4.4932 4.4932 2.4815 0 4.4932-2.0117 4.4932-4.4932 0-2.4816-2.0117-4.4932-4.4932-4.4932Zm0 7.41c-1.6108 0-2.9168-1.3056-2.9168-2.9168 0-1.6111 1.306-2.9168 2.9168-2.9168 1.6107 0 2.9168 1.3057 2.9168 2.9168 0 1.6112-1.3061 2.9168-2.9168 2.9168Zm4.6706-8.6374c-.58 0-1.0499.4699-1.0499 1.05 0 .58.4699 1.05 1.0499 1.05.5801 0 1.0501-.47 1.0501-1.05 0-.5801-.4699-1.05-1.0501-1.05Z"/>
  </g>
  <defs>
    <clipPath id="a">
      <path fill="#fff" d="M7.25 7.25h17.5v17.5H7.25z"/>
    </clipPath>
  </defs>
</svg>