<svg width="32" height="32" viewBox="0 0 32 32" fill="none" xmlns="http://www.w3.org/2000/svg">
<g id="01.icon/16/star_non" clip-path="url(#clip0_267_6022)">
<path id="Star 1" d="M15.4941 3.52822C15.7085 3.12185 16.2905 3.12185 16.5049 3.52822L20.3691 10.8522C20.4518 11.0089 20.6025 11.1184 20.7771 11.1486L28.9367 12.5604C29.3894 12.6388 29.5693 13.1923 29.2491 13.5218L23.4776 19.4601C23.3541 19.5871 23.2966 19.7643 23.3218 19.9397L24.5005 28.1362C24.5659 28.591 24.0951 28.9331 23.6828 28.7304L16.2517 25.0764C16.0926 24.9982 15.9064 24.9982 15.7474 25.0764L8.31624 28.7304C7.90393 28.9331 7.43309 28.591 7.49849 28.1362L8.67723 19.9397C8.70245 19.7643 8.64489 19.5871 8.5214 19.4601L2.74997 13.5218C2.42974 13.1923 2.60958 12.6388 3.06232 12.5604L11.222 11.1486C11.3965 11.1184 11.5472 11.0089 11.6299 10.8522L15.4941 3.52822Z" fill="black" fill-opacity="0.16"/>
</g>
<defs>
<clipPath id="clip0_267_6022">
<rect width="32" height="32" fill="white"/>
</clipPath>
</defs>
</svg>
