<svg xmlns="http://www.w3.org/2000/svg" width="32" height="32" fill="none">
  <rect width="28" height="28" x="2" y="2" fill="#000" fill-opacity=".48" rx="8"/>
  <g clip-path="url(#a)">
    <path fill="#fff" fill-rule="evenodd" d="M24.206 9.0016a2.6298 2.6298 0 0 1 1.8566 1.8566h-.0017c.4391 1.637.4391 5.0546.4391 5.0546s0 3.4176-.4391 5.0547a2.6297 2.6297 0 0 1-1.8566 1.8566c-1.637.4391-8.2043.4391-8.2043.4391s-6.5672 0-8.2043-.4391a2.6298 2.6298 0 0 1-1.8566-1.8566C5.5 19.3304 5.5 15.9128 5.5 15.9128s0-3.4176.439-5.0546a2.6298 2.6298 0 0 1 1.8567-1.8566C9.4327 8.5625 16 8.5625 16 8.5625s6.5673 0 8.206.439Zm-4.849 6.9112-5.4574 3.1497v-6.2993l5.4574 3.1496Z" clip-rule="evenodd"/>
  </g>
  <defs>
    <clipPath id="a">
      <path fill="#fff" d="M5.5 5.5h21v21h-21z"/>
    </clipPath>
  </defs>
</svg>